<svg width="36" height="36" viewBox="0 0 36 36" fill="none" xmlns="http://www.w3.org/2000/svg">
<g clip-path="url(#clip0_283_542)">
<path d="M32.625 4.5H24.75V3.375C24.75 2.47989 24.3945 1.62145 23.7615 0.988515C23.1286 0.355579 22.2702 0 21.375 0L14.625 0C13.7299 0 12.8715 0.355579 12.2386 0.988515C11.6056 1.62145 11.25 2.47989 11.25 3.375V4.5H3.37505C2.47994 4.5 1.6215 4.85558 0.988564 5.48851C0.355629 6.12145 4.94384e-05 6.97989 4.94384e-05 7.875V16.875C-0.00865045 17.129 0.0688992 17.3784 0.220068 17.5827C0.371237 17.787 0.587117 17.9341 0.832549 18H1.12505V28.125C1.12505 29.0201 1.48063 29.8786 2.11356 30.5115C2.7465 31.1444 3.60494 31.5 4.50005 31.5H9.00005C10.048 32.8972 11.4068 34.0312 12.9689 34.8123C14.531 35.5934 16.2535 36 18 36C19.7466 36 21.4691 35.5934 23.0312 34.8123C24.5933 34.0312 25.9521 32.8972 27 31.5H31.5C32.3952 31.5 33.2536 31.1444 33.8865 30.5115C34.5195 29.8786 34.875 29.0201 34.875 28.125V18L35.1675 17.9325C35.4018 17.8695 35.6094 17.7325 35.7594 17.542C35.9094 17.3514 35.9938 17.1175 36 16.875V7.875C36 6.97989 35.6445 6.12145 35.0115 5.48851C34.3786 4.85558 33.5202 4.5 32.625 4.5ZM13.5 3.375C13.5 3.07663 13.6186 2.79048 13.8296 2.5795C14.0405 2.36853 14.3267 2.25 14.625 2.25H21.375C21.6734 2.25 21.9596 2.36853 22.1705 2.5795C22.3815 2.79048 22.5 3.07663 22.5 3.375V4.5H13.5V3.375ZM2.25005 7.875C2.25005 7.57663 2.36858 7.29048 2.57955 7.0795C2.79053 6.86853 3.07668 6.75 3.37505 6.75H32.625C32.9234 6.75 33.2096 6.86853 33.4205 7.0795C33.6315 7.29048 33.75 7.57663 33.75 7.875V16.0087L26.865 17.8425C25.8129 16.4958 24.4677 15.4065 22.9316 14.6574C21.3956 13.9082 19.709 13.5188 18 13.5188C16.291 13.5188 14.6045 13.9082 13.0685 14.6574C11.5324 15.4065 10.1872 16.4958 9.13505 17.8425L2.25005 16.0087V7.875ZM4.50005 29.25C4.20168 29.25 3.91553 29.1315 3.70455 28.9205C3.49358 28.7095 3.37505 28.4234 3.37505 28.125V18.6413L7.87505 19.8337C7.15979 21.2951 6.77303 22.8952 6.74194 24.5219C6.71084 26.1486 7.03616 27.7624 7.69505 29.25H4.50005ZM18 33.75C16.22 33.75 14.48 33.2222 12.9999 32.2332C11.5199 31.2443 10.3663 29.8387 9.68513 28.1942C9.00395 26.5496 8.82572 24.74 9.17298 22.9942C9.52025 21.2484 10.3774 19.6447 11.6361 18.386C12.8948 17.1274 14.4984 16.2702 16.2442 15.9229C17.9901 15.5757 19.7997 15.7539 21.4442 16.4351C23.0887 17.1163 24.4943 18.2698 25.4833 19.7499C26.4722 21.2299 27 22.97 27 24.75C27 27.1369 26.0518 29.4261 24.364 31.114C22.6762 32.8018 20.387 33.75 18 33.75ZM32.625 28.125C32.625 28.4234 32.5065 28.7095 32.2955 28.9205C32.0846 29.1315 31.7984 29.25 31.5 29.25H28.305C28.9639 27.7624 29.2893 26.1486 29.2582 24.5219C29.2271 22.8952 28.8403 21.2951 28.125 19.8337L32.625 18.6413V28.125Z" fill="#3246D3"/>
<path d="M18 21.375H20.25C20.5484 21.375 20.8345 21.2565 21.0455 21.0455C21.2565 20.8345 21.375 20.5484 21.375 20.25C21.375 19.9516 21.2565 19.6655 21.0455 19.4545C20.8345 19.2435 20.5484 19.125 20.25 19.125H19.125C19.125 18.8266 19.0065 18.5405 18.7955 18.3295C18.5845 18.1185 18.2984 18 18 18C17.7016 18 17.4155 18.1185 17.2045 18.3295C16.9935 18.5405 16.875 18.8266 16.875 19.125V19.3275C16.131 19.5975 15.5055 20.1204 15.1079 20.8048C14.7103 21.4892 14.5659 22.2915 14.6999 23.0716C14.834 23.8517 15.2379 24.5599 15.8411 25.0723C16.4444 25.5847 17.2085 25.8689 18 25.875C18.2984 25.875 18.5845 25.9935 18.7955 26.2045C19.0065 26.4155 19.125 26.7016 19.125 27C19.125 27.2984 19.0065 27.5845 18.7955 27.7955C18.5845 28.0065 18.2984 28.125 18 28.125H15.75C15.4516 28.125 15.1655 28.2435 14.9545 28.4545C14.7435 28.6655 14.625 28.9516 14.625 29.25C14.625 29.5484 14.7435 29.8345 14.9545 30.0455C15.1655 30.2565 15.4516 30.375 15.75 30.375H16.875C16.875 30.6734 16.9935 30.9595 17.2045 31.1705C17.4155 31.3815 17.7016 31.5 18 31.5C18.2984 31.5 18.5845 31.3815 18.7955 31.1705C19.0065 30.9595 19.125 30.6734 19.125 30.375V30.1725C19.869 29.9025 20.4945 29.3796 20.8921 28.6952C21.2897 28.0108 21.4341 27.2085 21.3001 26.4284C21.166 25.6483 20.7621 24.9401 20.1589 24.4277C19.5556 23.9153 18.7915 23.6311 18 23.625C17.7016 23.625 17.4155 23.5065 17.2045 23.2955C16.9935 23.0845 16.875 22.7984 16.875 22.5C16.875 22.2016 16.9935 21.9155 17.2045 21.7045C17.4155 21.4935 17.7016 21.375 18 21.375Z" fill="#3246D3"/>
</g>
<defs>
<clipPath id="clip0_283_542">
<rect width="36" height="36" fill="white"/>
</clipPath>
</defs>
</svg>
