<svg width="36" height="36" viewBox="0 0 36 36" fill="none" xmlns="http://www.w3.org/2000/svg">
<g clip-path="url(#clip0_284_813)">
<path d="M32.6251 4.5H24.7501V3.375C24.7501 2.47989 24.3945 1.62145 23.7616 0.988515C23.1286 0.355579 22.2702 0 21.3751 0L14.6251 0C13.73 0 12.8715 0.355579 12.2386 0.988515C11.6057 1.62145 11.2501 2.47989 11.2501 3.375V4.5H3.37507C2.47997 4.5 1.62152 4.85558 0.988587 5.48851C0.355652 6.12145 7.23266e-05 6.97989 7.23266e-05 7.875V16.875C-0.00862756 17.129 0.0689221 17.3784 0.220091 17.5827C0.371259 17.787 0.58714 17.9341 0.832572 18H1.12507V28.125C1.12507 29.0201 1.48065 29.8786 2.11359 30.5115C2.74652 31.1444 3.60497 31.5 4.50007 31.5H9.00007C10.048 32.8972 11.4068 34.0312 12.9689 34.8123C14.531 35.5934 16.2536 36 18.0001 36C19.7466 36 21.4691 35.5934 23.0312 34.8123C24.5933 34.0312 25.9522 32.8972 27.0001 31.5H31.5001C32.3952 31.5 33.2536 31.1444 33.8866 30.5115C34.5195 29.8786 34.8751 29.0201 34.8751 28.125V18L35.1676 17.9325C35.4018 17.8695 35.6094 17.7325 35.7594 17.542C35.9094 17.3514 35.9938 17.1175 36.0001 16.875V7.875C36.0001 6.97989 35.6445 6.12145 35.0116 5.48851C34.3786 4.85558 33.5202 4.5 32.6251 4.5ZM13.5001 3.375C13.5001 3.07663 13.6186 2.79048 13.8296 2.5795C14.0406 2.36853 14.3267 2.25 14.6251 2.25H21.3751C21.6734 2.25 21.9596 2.36853 22.1706 2.5795C22.3815 2.79048 22.5001 3.07663 22.5001 3.375V4.5H13.5001V3.375ZM2.25007 7.875C2.25007 7.57663 2.3686 7.29048 2.57958 7.0795C2.79056 6.86853 3.0767 6.75 3.37507 6.75H32.6251C32.9234 6.75 33.2096 6.86853 33.4206 7.0795C33.6315 7.29048 33.7501 7.57663 33.7501 7.875V16.0087L26.8651 17.8425C25.8129 16.4958 24.4677 15.4065 22.9317 14.6574C21.3956 13.9082 19.7091 13.5188 18.0001 13.5188C16.2911 13.5188 14.6045 13.9082 13.0685 14.6574C11.5324 15.4065 10.1873 16.4958 9.13507 17.8425L2.25007 16.0087V7.875ZM4.50007 29.25C4.2017 29.25 3.91556 29.1315 3.70458 28.9205C3.4936 28.7095 3.37507 28.4234 3.37507 28.125V18.6413L7.87507 19.8337C7.15981 21.2951 6.77306 22.8952 6.74196 24.5219C6.71087 26.1486 7.03618 27.7624 7.69507 29.25H4.50007ZM18.0001 33.75C16.22 33.75 14.48 33.2222 12.9999 32.2332C11.5199 31.2443 10.3663 29.8387 9.68516 28.1942C9.00397 26.5496 8.82574 24.74 9.17301 22.9942C9.52027 21.2484 10.3774 19.6447 11.6361 18.386C12.8948 17.1274 14.4984 16.2702 16.2443 15.9229C17.9901 15.5757 19.7997 15.7539 21.4442 16.4351C23.0888 17.1163 24.4944 18.2698 25.4833 19.7499C26.4722 21.2299 27.0001 22.97 27.0001 24.75C27.0001 27.1369 26.0519 29.4261 24.364 31.114C22.6762 32.8018 20.387 33.75 18.0001 33.75ZM32.6251 28.125C32.6251 28.4234 32.5065 28.7095 32.2956 28.9205C32.0846 29.1315 31.7984 29.25 31.5001 29.25H28.3051C28.964 27.7624 29.2893 26.1486 29.2582 24.5219C29.2271 22.8952 28.8403 21.2951 28.1251 19.8337L32.6251 18.6413V28.125Z" fill="#81869B"/>
<path d="M18 21.375H20.25C20.5484 21.375 20.8345 21.2565 21.0455 21.0455C21.2565 20.8345 21.375 20.5484 21.375 20.25C21.375 19.9516 21.2565 19.6655 21.0455 19.4545C20.8345 19.2435 20.5484 19.125 20.25 19.125H19.125C19.125 18.8266 19.0065 18.5405 18.7955 18.3295C18.5845 18.1185 18.2984 18 18 18C17.7016 18 17.4155 18.1185 17.2045 18.3295C16.9935 18.5405 16.875 18.8266 16.875 19.125V19.3275C16.131 19.5975 15.5055 20.1204 15.1079 20.8048C14.7103 21.4892 14.5659 22.2915 14.6999 23.0716C14.834 23.8517 15.2379 24.5599 15.8411 25.0723C16.4444 25.5847 17.2085 25.8689 18 25.875C18.2984 25.875 18.5845 25.9935 18.7955 26.2045C19.0065 26.4155 19.125 26.7016 19.125 27C19.125 27.2984 19.0065 27.5845 18.7955 27.7955C18.5845 28.0065 18.2984 28.125 18 28.125H15.75C15.4516 28.125 15.1655 28.2435 14.9545 28.4545C14.7435 28.6655 14.625 28.9516 14.625 29.25C14.625 29.5484 14.7435 29.8345 14.9545 30.0455C15.1655 30.2565 15.4516 30.375 15.75 30.375H16.875C16.875 30.6734 16.9935 30.9595 17.2045 31.1705C17.4155 31.3815 17.7016 31.5 18 31.5C18.2984 31.5 18.5845 31.3815 18.7955 31.1705C19.0065 30.9595 19.125 30.6734 19.125 30.375V30.1725C19.869 29.9025 20.4945 29.3796 20.8921 28.6952C21.2897 28.0108 21.4341 27.2085 21.3001 26.4284C21.166 25.6483 20.7621 24.9401 20.1589 24.4277C19.5556 23.9153 18.7915 23.6311 18 23.625C17.7016 23.625 17.4155 23.5065 17.2045 23.2955C16.9935 23.0845 16.875 22.7984 16.875 22.5C16.875 22.2016 16.9935 21.9155 17.2045 21.7045C17.4155 21.4935 17.7016 21.375 18 21.375Z" fill="#81869B"/>
</g>
<defs>
<clipPath id="clip0_284_813">
<rect width="36" height="36" fill="white"/>
</clipPath>
</defs>
</svg>
