<svg width="32" height="32" viewBox="0 0 32 32" fill="none" xmlns="http://www.w3.org/2000/svg">
<path d="M10 6H5" stroke="#81869B" stroke-width="2" stroke-linejoin="round"/>
<path d="M0 2H5V22H27L31 16V13" stroke="#81869B" stroke-width="2" stroke-linejoin="round"/>
<path d="M5 22V25C5 25.2652 5.10536 25.5196 5.29289 25.7071C5.48043 25.8946 5.73478 26 6 26H28" stroke="#81869B" stroke-width="2" stroke-linejoin="round"/>
<path d="M11 30C12.1046 30 13 29.1046 13 28C13 26.8954 12.1046 26 11 26C9.89543 26 9 26.8954 9 28C9 29.1046 9.89543 30 11 30Z" stroke="#81869B" stroke-width="2" stroke-linejoin="round"/>
<path d="M22 30C23.1046 30 24 29.1046 24 28C24 26.8954 23.1046 26 22 26C20.8954 26 20 26.8954 20 28C20 29.1046 20.8954 30 22 30Z" stroke="#81869B" stroke-width="2" stroke-linejoin="round"/>
<path d="M27 2H15V12H27V2Z" stroke="#81869B" stroke-width="2" stroke-linejoin="round"/>
<path d="M19 2V7H23V2" stroke="#81869B" stroke-width="2" stroke-linejoin="round"/>
</svg>
