<svg width="39" height="39" viewBox="0 0 39 39" fill="none" xmlns="http://www.w3.org/2000/svg">
<path d="M6.99562 30.2981C6.99562 30.5987 7.11504 30.887 7.3276 31.0996C7.54016 31.3121 7.82846 31.4315 8.12906 31.4315H30.8466C31.1472 31.4315 31.4355 31.3121 31.648 31.0996C31.8606 30.887 31.98 30.5987 31.98 30.2981C31.98 29.9975 31.8606 29.7092 31.648 29.4966C31.4355 29.2841 31.1472 29.1647 30.8466 29.1647H8.12906C7.82846 29.1647 7.54016 29.2841 7.3276 29.4966C7.11504 29.7092 6.99562 29.9975 6.99562 30.2981Z" fill="#81869B"/>
<path d="M8.12906 34.8318H30.8466C31.1472 34.8318 31.4355 34.7124 31.648 34.4998C31.8606 34.2873 31.98 33.999 31.98 33.6984C31.98 33.3978 31.8606 33.1095 31.648 32.8969C31.4355 32.6844 31.1472 32.5649 30.8466 32.5649H8.12906C7.82846 32.5649 7.54016 32.6844 7.3276 32.8969C7.11504 33.1095 6.99562 33.3978 6.99562 33.6984C6.99562 33.999 7.11504 34.2873 7.3276 34.4998C7.54016 34.7124 7.82846 34.8318 8.12906 34.8318Z" fill="#81869B"/>
<path d="M36.5625 13.26C36.5649 12.7267 36.4423 12.2002 36.2045 11.7228C35.9666 11.2454 35.6202 10.8304 35.193 10.5111C34.7658 10.1918 34.2697 9.9771 33.7445 9.88418C33.2194 9.79127 32.6797 9.82275 32.1689 9.97609C31.6581 10.1294 31.1903 10.4004 30.8031 10.7672C30.4159 11.134 30.1201 11.5865 29.9394 12.0882C29.7587 12.59 29.6981 13.1272 29.7625 13.6567C29.8269 14.1861 30.0145 14.6931 30.3103 15.1369L25.5937 18.391L21.5109 10.3106C22.0898 9.88448 22.5193 9.28641 22.7382 8.60174C22.9571 7.91706 22.9542 7.18075 22.73 6.49781C22.5057 5.81488 22.0715 5.2202 21.4893 4.79861C20.9071 4.37701 20.2066 4.15002 19.4878 4.15002C18.769 4.15002 18.0685 4.37701 17.4863 4.79861C16.9041 5.2202 16.4699 5.81488 16.2457 6.49781C16.0214 7.18075 16.0185 7.91706 16.2374 8.60174C16.4563 9.28641 16.8858 9.88448 17.4647 10.3106L13.4062 18.391L8.68969 15.1369C9.09565 14.5354 9.2993 13.8201 9.27105 13.095C9.24279 12.3699 8.98411 11.6726 8.53257 11.1045C8.08103 10.5364 7.46015 10.1271 6.7601 9.93589C6.06005 9.74472 5.31728 9.78169 4.63968 10.0414C3.96207 10.3012 3.38491 10.7702 2.99203 11.3803C2.59914 11.9904 2.41098 12.7099 2.45488 13.4343C2.49878 14.1586 2.77246 14.8501 3.23615 15.4084C3.69985 15.9666 4.32942 16.3624 5.03344 16.5384L6.5325 27.0319C6.57066 27.3022 6.70508 27.5496 6.91107 27.7287C7.11706 27.9079 7.38078 28.0066 7.65375 28.0069H7.8C7.94837 27.986 8.09113 27.9359 8.22003 27.8595C8.34892 27.7831 8.46139 27.682 8.55092 27.5618C8.64046 27.4417 8.70529 27.305 8.74166 27.1596C8.77803 27.0143 8.78522 26.8632 8.76281 26.715L7.37344 16.965L13.1625 20.9747C13.3516 21.1081 13.577 21.1804 13.8084 21.1819H14.0888C14.2453 21.1421 14.3915 21.0693 14.5176 20.9684C14.6437 20.8675 14.7468 20.7409 14.82 20.5969L19.5 11.3344L24.1678 20.5725C24.241 20.7165 24.3441 20.8432 24.4702 20.9441C24.5963 21.045 24.7425 21.1177 24.8991 21.1575H25.1794C25.4108 21.156 25.6362 21.0837 25.8253 20.9503L31.6144 16.9406L30.225 26.6906C30.1953 26.8415 30.1967 26.9968 30.2289 27.1471C30.2611 27.2974 30.3236 27.4396 30.4125 27.565C30.5015 27.6904 30.615 27.7964 30.7462 27.8766C30.8773 27.9567 31.0235 28.0094 31.1756 28.0313H31.3341C31.607 28.031 31.8708 27.9322 32.0767 27.7531C32.2827 27.574 32.4172 27.3266 32.4553 27.0563L33.9544 16.5628C34.6968 16.385 35.3577 15.9625 35.8308 15.3634C36.3039 14.7643 36.5616 14.0234 36.5625 13.26ZM5.86219 12.1144C6.1628 12.1144 6.45109 12.2338 6.66365 12.4464C6.87621 12.6589 6.99563 12.9472 6.99563 13.2478C6.99563 13.5484 6.87621 13.8367 6.66365 14.0493C6.45109 14.2618 6.1628 14.3813 5.86219 14.3813C5.56158 14.3813 5.27329 14.2618 5.06073 14.0493C4.84817 13.8367 4.72875 13.5484 4.72875 13.2478C4.72875 12.9472 4.84817 12.6589 5.06073 12.4464C5.27329 12.2338 5.56158 12.1144 5.86219 12.1144ZM19.5 6.43501C19.7242 6.43501 19.9433 6.50149 20.1297 6.62603C20.3161 6.75057 20.4614 6.92759 20.5472 7.1347C20.6329 7.34181 20.6554 7.56971 20.6117 7.78957C20.5679 8.00944 20.46 8.2114 20.3015 8.36991C20.1429 8.52843 19.941 8.63637 19.7211 8.68011C19.5013 8.72384 19.2734 8.7014 19.0663 8.61561C18.8591 8.52982 18.6821 8.38455 18.5576 8.19815C18.433 8.01176 18.3666 7.79262 18.3666 7.56845C18.3666 7.26784 18.486 6.97955 18.6985 6.76699C18.9111 6.55443 19.1994 6.43501 19.5 6.43501ZM33.1378 14.3934C32.9147 14.3887 32.698 14.3181 32.5149 14.1907C32.3317 14.0633 32.1903 13.8846 32.1082 13.6771C32.0261 13.4697 32.0071 13.2426 32.0536 13.0243C32.1 12.8061 32.2099 12.6064 32.3693 12.4503C32.5287 12.2942 32.7307 12.1887 32.9499 12.1469C33.1691 12.1051 33.3957 12.1289 33.6014 12.2154C33.8071 12.3018 33.9827 12.4471 34.1062 12.6329C34.2297 12.8187 34.2956 13.0369 34.2956 13.26C34.2957 13.412 34.2652 13.5624 34.206 13.7024C34.1468 13.8423 34.06 13.9689 33.9508 14.0747C33.8417 14.1804 33.7124 14.2631 33.5706 14.3179C33.4288 14.3727 33.2775 14.3984 33.1256 14.3934H33.1378Z" fill="#81869B"/>
<path d="M19.5 27.8363C19.6896 27.8355 19.876 27.787 20.0421 27.6955C20.2082 27.6039 20.3487 27.4721 20.4506 27.3122L22.5225 24.0947C22.6386 23.9127 22.7002 23.7013 22.7002 23.4854C22.7002 23.2695 22.6386 23.058 22.5225 22.876L20.4506 19.6585C20.3483 19.4974 20.207 19.3648 20.0397 19.2729C19.8725 19.181 19.6847 19.1328 19.4939 19.1328C19.3031 19.1328 19.1153 19.181 18.9481 19.2729C18.7808 19.3648 18.6395 19.4974 18.5372 19.6585L16.4531 22.876C16.337 23.058 16.2754 23.2695 16.2754 23.4854C16.2754 23.7013 16.337 23.9127 16.4531 24.0947L18.5372 27.3122C18.6403 27.4739 18.7826 27.6068 18.951 27.6984C19.1194 27.7901 19.3083 27.8375 19.5 27.8363ZM19.5 22.3641L20.2312 23.4854L19.5 24.6066L18.7687 23.4854L19.5 22.3641Z" fill="#81869B"/>
</svg>
