<svg width="39" height="39" viewBox="0 0 39 39" fill="none" xmlns="http://www.w3.org/2000/svg">
<path d="M6.99562 30.2975C6.99562 30.5981 7.11504 30.8864 7.3276 31.099C7.54016 31.3115 7.82846 31.4309 8.12906 31.4309H30.8466C31.1472 31.4309 31.4355 31.3115 31.648 31.099C31.8606 30.8864 31.98 30.5981 31.98 30.2975C31.98 29.9969 31.8606 29.7086 31.648 29.496C31.4355 29.2835 31.1472 29.1641 30.8466 29.1641H8.12906C7.82846 29.1641 7.54016 29.2835 7.3276 29.496C7.11504 29.7086 6.99562 29.9969 6.99562 30.2975Z" fill="#3246D3"/>
<path d="M8.12906 34.8313H30.8466C31.1472 34.8313 31.4355 34.7119 31.648 34.4994C31.8606 34.2868 31.98 33.9985 31.98 33.6979C31.98 33.3973 31.8606 33.109 31.648 32.8964C31.4355 32.6839 31.1472 32.5645 30.8466 32.5645H8.12906C7.82846 32.5645 7.54016 32.6839 7.3276 32.8964C7.11504 33.109 6.99562 33.3973 6.99562 33.6979C6.99562 33.9985 7.11504 34.2868 7.3276 34.4994C7.54016 34.7119 7.82846 34.8313 8.12906 34.8313Z" fill="#3246D3"/>
<path d="M36.5625 13.2604C36.5649 12.727 36.4423 12.2006 36.2045 11.7232C35.9666 11.2458 35.6202 10.8308 35.193 10.5115C34.7658 10.1922 34.2697 9.97747 33.7445 9.88455C33.2194 9.79163 32.6797 9.82311 32.1689 9.97646C31.6581 10.1298 31.1903 10.4008 30.8031 10.7676C30.4159 11.1344 30.1201 11.5868 29.9394 12.0886C29.7587 12.5904 29.6981 13.1276 29.7625 13.657C29.8269 14.1865 30.0145 14.6934 30.3103 15.1373L25.5937 18.3913L21.5109 10.311C22.0898 9.88485 22.5193 9.28678 22.7382 8.6021C22.9571 7.91743 22.9542 7.18111 22.73 6.49818C22.5057 5.81524 22.0715 5.22057 21.4893 4.79897C20.9071 4.37738 20.2066 4.15039 19.4878 4.15039C18.769 4.15039 18.0685 4.37738 17.4863 4.79897C16.9041 5.22057 16.4699 5.81524 16.2457 6.49818C16.0214 7.18111 16.0185 7.91743 16.2374 8.6021C16.4563 9.28678 16.8858 9.88485 17.4647 10.311L13.4062 18.3913L8.68969 15.1373C9.09565 14.5357 9.2993 13.8205 9.27105 13.0954C9.24279 12.3702 8.98411 11.673 8.53257 11.1049C8.08103 10.5368 7.46015 10.1274 6.7601 9.93625C6.06005 9.74508 5.31728 9.78206 4.63968 10.0418C3.96207 10.3016 3.38491 10.7706 2.99203 11.3807C2.59914 11.9908 2.41098 12.7103 2.45488 13.4347C2.49878 14.159 2.77246 14.8505 3.23615 15.4087C3.69985 15.9669 4.32942 16.3628 5.03344 16.5388L6.5325 27.0323C6.57066 27.3025 6.70508 27.55 6.91107 27.7291C7.11706 27.9082 7.38078 28.007 7.65375 28.0073H7.8C7.94837 27.9864 8.09113 27.9363 8.22003 27.8599C8.34892 27.7835 8.46139 27.6823 8.55092 27.5622C8.64046 27.442 8.70529 27.3053 8.74166 27.16C8.77803 27.0146 8.78522 26.8635 8.76281 26.7154L7.37344 16.9654L13.1625 20.9751C13.3516 21.1084 13.577 21.1808 13.8084 21.1823H14.0888C14.2453 21.1425 14.3915 21.0697 14.5176 20.9688C14.6437 20.8679 14.7468 20.7412 14.82 20.5973L19.5 11.3348L24.1678 20.5729C24.241 20.7169 24.3441 20.8435 24.4702 20.9444C24.5963 21.0453 24.7425 21.1181 24.8991 21.1579H25.1794C25.4108 21.1564 25.6362 21.0841 25.8253 20.9507L31.6144 16.941L30.225 26.691C30.1953 26.8418 30.1967 26.9972 30.2289 27.1475C30.2611 27.2978 30.3236 27.44 30.4125 27.5654C30.5015 27.6908 30.615 27.7968 30.7462 27.8769C30.8773 27.9571 31.0235 28.0097 31.1756 28.0316H31.3341C31.607 28.0314 31.8708 27.9326 32.0767 27.7535C32.2827 27.5744 32.4172 27.3269 32.4553 27.0566L33.9544 16.5632C34.6968 16.3853 35.3577 15.9629 35.8308 15.3637C36.3039 14.7646 36.5616 14.0238 36.5625 13.2604ZM5.86219 12.1148C6.1628 12.1148 6.45109 12.2342 6.66365 12.4467C6.87621 12.6593 6.99563 12.9476 6.99563 13.2482C6.99563 13.5488 6.87621 13.8371 6.66365 14.0497C6.45109 14.2622 6.1628 14.3816 5.86219 14.3816C5.56158 14.3816 5.27329 14.2622 5.06073 14.0497C4.84817 13.8371 4.72875 13.5488 4.72875 13.2482C4.72875 12.9476 4.84817 12.6593 5.06073 12.4467C5.27329 12.2342 5.56158 12.1148 5.86219 12.1148ZM19.5 6.43538C19.7242 6.43538 19.9433 6.50185 20.1297 6.6264C20.3161 6.75094 20.4614 6.92796 20.5472 7.13507C20.6329 7.34218 20.6554 7.57007 20.6117 7.78994C20.5679 8.0098 20.46 8.21176 20.3015 8.37028C20.1429 8.52879 19.941 8.63674 19.7211 8.68047C19.5013 8.72421 19.2734 8.70176 19.0663 8.61598C18.8591 8.53019 18.6821 8.38491 18.5576 8.19852C18.433 8.01213 18.3666 7.79299 18.3666 7.56882C18.3666 7.26821 18.486 6.97991 18.6985 6.76735C18.9111 6.55479 19.1994 6.43538 19.5 6.43538ZM33.1378 14.3938C32.9147 14.389 32.698 14.3185 32.5149 14.1911C32.3317 14.0636 32.1903 13.885 32.1082 13.6775C32.0261 13.47 32.0071 13.2429 32.0536 13.0247C32.1 12.8065 32.2099 12.6068 32.3693 12.4507C32.5287 12.2946 32.7307 12.1891 32.9499 12.1473C33.1691 12.1055 33.3957 12.1293 33.6014 12.2158C33.8071 12.3022 33.9827 12.4475 34.1062 12.6333C34.2297 12.8191 34.2956 13.0373 34.2956 13.2604C34.2957 13.4124 34.2652 13.5628 34.206 13.7027C34.1468 13.8427 34.06 13.9693 33.9508 14.075C33.8417 14.1808 33.7124 14.2635 33.5706 14.3183C33.4288 14.373 33.2775 14.3987 33.1256 14.3938H33.1378Z" fill="#3246D3"/>
<path d="M19.5 27.8363C19.6896 27.8355 19.876 27.787 20.0421 27.6955C20.2082 27.6039 20.3487 27.4721 20.4506 27.3122L22.5225 24.0947C22.6386 23.9127 22.7002 23.7013 22.7002 23.4854C22.7002 23.2695 22.6386 23.058 22.5225 22.876L20.4506 19.6585C20.3483 19.4974 20.207 19.3648 20.0397 19.2729C19.8725 19.181 19.6847 19.1328 19.4939 19.1328C19.3031 19.1328 19.1153 19.181 18.9481 19.2729C18.7808 19.3648 18.6395 19.4974 18.5372 19.6585L16.4531 22.876C16.337 23.058 16.2754 23.2695 16.2754 23.4854C16.2754 23.7013 16.337 23.9127 16.4531 24.0947L18.5372 27.3122C18.6403 27.4739 18.7826 27.6068 18.951 27.6984C19.1194 27.7901 19.3083 27.8375 19.5 27.8363ZM19.5 22.3641L20.2312 23.4854L19.5 24.6066L18.7687 23.4854L19.5 22.3641Z" fill="#3246D3"/>
</svg>
